<?xml version="1.0" encoding="UTF-8"?>
<svg id="Layer_1" xmlns="http://www.w3.org/2000/svg" viewBox="0 0 25 25">
  <defs>
    <style>
      .cls-1 {
        fill: #fff;
      }

      .cls-2 {
        fill: #267cb5;
      }
    </style>
  </defs>
  <circle class="cls-2" cx="12.5" cy="12.5" r="12.5"/>
  <path class="cls-1" d="M12.5,2.17C6.79,2.17,2.17,6.79,2.17,12.5s4.62,10.33,10.33,10.33,10.33-4.62,10.33-10.33S18.21,2.17,12.5,2.17ZM13.02,8.37c1.21-.03,2.4-.18,3.51-.44.36,1.21.57,2.58.62,4.05h-4.13v-3.62ZM13.02,7.33V3.25c1.29.31,2.43,1.68,3.18,3.67-1.01.23-2.07.39-3.18.41ZM11.98,3.25v4.08c-1.11-.03-2.17-.15-3.18-.39.75-1.99,1.89-3.38,3.18-3.69ZM11.98,8.37v3.62h-4.13c.05-1.47.26-2.84.62-4.05,1.11.26,2.3.39,3.51.44ZM6.82,11.98h-3.62c.1-1.99.83-3.8,1.99-5.24.67.36,1.42.67,2.25.93-.34,1.27-.57,2.74-.62,4.31ZM6.82,13.02c.05,1.58.26,3.02.65,4.34-.83.26-1.58.57-2.25.93-1.16-1.47-1.89-3.28-1.99-5.24h3.59v-.03ZM7.85,13.02h4.13v3.62c-1.21.03-2.4.18-3.51.44-.36-1.21-.57-2.58-.62-4.05ZM11.98,17.67v4.05c-1.29-.31-2.43-1.68-3.18-3.67,1.01-.21,2.07-.36,3.18-.39ZM13.02,21.75v-4.08c1.11.03,2.17.15,3.18.39-.75,1.99-1.89,3.38-3.18,3.69ZM13.02,16.63v-3.62h4.13c-.05,1.47-.26,2.84-.62,4.05-1.11-.26-2.3-.39-3.51-.44ZM18.18,13.02h3.62c-.1,1.99-.83,3.8-1.99,5.24-.67-.36-1.42-.67-2.25-.93.34-1.29.57-2.74.62-4.31ZM18.18,11.98c-.05-1.58-.26-3.02-.65-4.34.83-.26,1.58-.57,2.25-.93,1.16,1.47,1.89,3.28,1.99,5.24l-3.59.03h0ZM19.09,5.94c-.57.28-1.19.54-1.86.75-.44-1.19-1.01-2.2-1.7-2.97,1.34.46,2.56,1.24,3.56,2.22ZM9.48,3.72c-.67.75-1.24,1.76-1.7,2.97-.67-.21-1.29-.44-1.86-.72,1.01-1.03,2.22-1.78,3.56-2.25ZM5.91,19.06c.57-.28,1.19-.54,1.86-.75.44,1.19,1.01,2.2,1.7,2.97-1.34-.46-2.56-1.24-3.56-2.22ZM15.52,21.28c.67-.75,1.27-1.78,1.7-2.97.67.21,1.29.44,1.86.75-1.01.98-2.22,1.76-3.56,2.22Z"/>
</svg>