<?xml version="1.0" encoding="UTF-8"?>
<svg id="Layer_1" xmlns="http://www.w3.org/2000/svg" width="8.82mm" height="8.82mm" viewBox="0 0 25 25">
  <defs>
    <style>
      .cls-1 {
        fill: #b9ea6c;
      }

      .cls-2 {
        fill: #62b6fe;
      }

      .cls-3 {
        fill: #89c7fc;
      }

      .cls-4 {
        fill: #61b6fe;
      }

      .cls-5 {
        fill: #96d52a;
      }

      .cls-6 {
        fill: #fefefe;
      }
    </style>
  </defs>
  <path class="cls-3" d="M11.52,0h.54s.08.04.13.05c.63.07,1.26.17,1.88.32,1.59.4,3.05,1.07,4.37,2.05.47.35.94.71,1.33,1.15-.36.16-.74.29-1.09.48-.51.28-.83.67-.88,1.28-.04.42.04.82.11,1.23.04.21.16.31.37.31.34,0,.68,0,1.02-.02.6-.04,1.19-.14,1.8-.13.72,0,1.07.49.84,1.18-.11.31-.22.66-.61.68-1.11.05-2.23.06-3.32-.21-.44-.11-.7.04-.95.34-.12.14-.29.3-.23.49.15.44-.06.77-.26,1.12-.16.27-.34.54-.48.82-.16.31-.29.64-.18,1.01.21.75.72,1.23,1.44,1.46.51.17,1.06.14,1.59.15.91.02,1.3.37,1.48,1.26.16.83.05,1.67.14,2.5.07.68-.05,1.36-.21,2.03-.06.27.05.5.3.62.07.03.13.06.2.09-.06.07-.12.13-.17.2-.55.69-1.19,1.3-1.89,1.85-.84.66-1.74,1.21-2.72,1.63-.92.4-1.88.69-2.87.86-.38.07-.77.05-1.14.19h-.54c-.16-.09-.35-.07-.52-.09-1.13-.13-2.21-.42-3.26-.85-2.01-.83-3.69-2.11-5.04-3.81-1.37-1.73-2.22-3.69-2.56-5.87-.05-.32-.04-.64-.14-.95,0-.62,0-1.24,0-1.85.02-.04.04-.07.04-.11.06-.83.21-1.65.45-2.45.17-.58.35-1.16.65-1.69.06.16.11.32.18.48.49,1.21,1.16,2.28,2.16,3.14.55.47,1.17.82,1.77,1.21.6.39,1.08.9,1.17,1.66.05.39.05.78.07,1.17.05.9.31,1.68,1.16,2.17.54.3.85.82,1.08,1.38.31.75.41,1.55.59,2.33.15.66.31,1.32.71,1.88.38.53.83.52,1.22-.02.3-.42.45-.9.56-1.39.07-.34.11-.69.19-1.03.18-.76.66-1.35,1.15-1.93.48-.56.94-1.14,1.2-1.85.13-.36.22-.74.23-1.12.03-.55-.34-.89-.74-1.19-.83-.62-1.79-.98-2.76-1.32-.81-.29-1.62-.36-2.46-.2-.45.08-.87.03-1.16-.41-.29-.44-.59-.88-.83-1.35-.33-.66-.15-1.01.59-1.16.48-.1.97-.12,1.43-.28.36-.13.61-.34.69-.74.11-.55.43-.96.9-1.25.77-.47,1.59-.83,2.49-1,.85-.15,1.16-.06,1.3-1.3,0,0,0-.02,0-.02.02-.21.06-.42.07-.63.02-.68-.17-.92-.84-1.02-.67-.09-1.27-.31-1.78-.76-.3-.27-.68-.37-1.08-.37-.48,0-.95.13-1.42.22-.55.1-1.1.28-1.66.1-.6-.19-1.18-.4-1.77-.6,1.55-1.03,3.24-1.7,5.09-1.97.29-.04.6-.03.88-.14Z"/>
  <path class="cls-6" d="M0,13.43c.1.31.09.64.14.95.34,2.18,1.19,4.14,2.56,5.87,1.35,1.7,3.03,2.98,5.04,3.81,1.05.43,2.13.72,3.26.85.17.02.36,0,.52.09-3.77,0-7.55,0-11.32,0-.17,0-.2-.03-.2-.2,0-3.79,0-7.58,0-11.37Z"/>
  <path class="cls-6" d="M11.52,0c-.28.11-.59.09-.88.14-1.85.27-3.54.94-5.09,1.97-1.56,1.03-2.81,2.36-3.77,3.95-.24.4-.5.8-.64,1.26-.31.53-.48,1.11-.65,1.69-.24.8-.39,1.62-.45,2.45,0,.04-.03.07-.04.11,0-3.79,0-7.57,0-11.36C0,.04.04,0,.21,0c3.77,0,7.54,0,11.31,0Z"/>
  <path class="cls-6" d="M25,13.57c0,3.74,0,7.48,0,11.23,0,.17-.03.2-.2.2-3.77,0-7.55,0-11.32,0,.03-.05.08-.04.13-.05.67-.04,1.32-.16,1.96-.33,2.76-.72,5.02-2.2,6.78-4.43.05-.07.14-.12.11-.23h0s.06,0,.05-.05h0s.05-.03.05-.06c.06-.06.14-.12.18-.19,1.1-1.58,1.81-3.32,2.11-5.22.05-.29.03-.59.14-.87Z"/>
  <path class="cls-6" d="M13.48,0C17.25,0,21.02,0,24.79,0c.18,0,.21.04.21.21,0,3.77,0,7.54,0,11.31-.09-.25-.07-.52-.11-.78-.31-2.06-1.06-3.94-2.29-5.61-.52-.71-1.1-1.39-1.79-1.95-.6-.58-1.28-1.05-1.99-1.47-1.37-.81-2.84-1.33-4.41-1.57-.31-.05-.62-.04-.92-.14Z"/>
  <path class="cls-5" d="M20.8,3.18c.7.56,1.27,1.23,1.79,1.95,1.23,1.68,1.98,3.56,2.29,5.61.04.26.02.53.11.78v2.05c-.11.28-.1.58-.14.87-.3,1.9-1.01,3.64-2.11,5.22-.05.07-.12.13-.18.19-.02.02-.04.04-.05.06h0s-.06,0-.05.05c0,0,0,0,0,0-.11,0-.19.08-.28.12-.41.17-.83.3-1.28.17,0-.06.04-.1.08-.15.49-.65.93-1.33,1.29-2.06.67-1.37,1.1-2.82,1.23-4.34.08-.9.08-1.8-.02-2.7-.11-.99-.34-1.96-.71-2.89-.38-.97-.85-1.89-1.44-2.75-.45-.64-.96-1.22-1.49-1.79.32-.15.68-.19.98-.4Z"/>
  <path class="cls-4" d="M20.89,20.26c.45.13.87,0,1.28-.17.09-.04.17-.12.28-.12.04.11-.05.16-.11.23-1.77,2.23-4.03,3.71-6.78,4.43-.64.17-1.3.29-1.96.33-.05,0-.1,0-.13.05h-1.42c.37-.13.76-.12,1.14-.19.99-.18,1.95-.47,2.87-.86.98-.42,1.88-.97,2.72-1.63.69-.55,1.33-1.15,1.89-1.85.06-.07.12-.14.17-.2.02,0,.03,0,.05,0Z"/>
  <path class="cls-2" d="M20.8,3.18c-.29.21-.66.25-.98.4-.02,0-.03,0-.05,0-.39-.44-.86-.81-1.33-1.15-1.32-.97-2.78-1.65-4.37-2.05-.62-.16-1.25-.25-1.88-.32-.05,0-.1,0-.13-.05h1.42c.3.1.62.09.92.14,1.57.24,3.04.76,4.41,1.57.71.42,1.4.89,1.99,1.47Z"/>
  <path class="cls-1" d="M1.15,7.32c.14-.46.39-.85.64-1.26.96-1.59,2.21-2.92,3.77-3.95.59.2,1.18.41,1.77.6.56.18,1.11,0,1.66-.1.47-.09.93-.21,1.42-.22.41,0,.78.09,1.08.37.51.46,1.11.67,1.78.76.67.09.86.34.84,1.02,0,.21-.04.42-.07.63,0,0,0,.02,0,.02-.14,1.24-.45,1.14-1.3,1.3-.91.16-1.72.53-2.49,1-.47.29-.79.71-.9,1.25-.08.4-.33.62-.69.74-.46.16-.95.19-1.43.28-.74.15-.92.5-.59,1.16.24.47.54.91.83,1.35.29.44.71.49,1.16.41.84-.16,1.65-.08,2.46.2.97.34,1.93.7,2.76,1.32.4.3.76.64.74,1.19-.02.38-.1.75-.23,1.12-.26.71-.72,1.29-1.2,1.85-.49.58-.97,1.17-1.15,1.93-.08.34-.12.69-.19,1.03-.11.49-.26.97-.56,1.39-.38.54-.83.55-1.22.02-.41-.56-.56-1.22-.71-1.88-.18-.78-.28-1.58-.59-2.33-.23-.56-.54-1.07-1.08-1.38-.86-.48-1.11-1.26-1.16-2.17-.02-.39-.02-.78-.07-1.17-.09-.75-.57-1.26-1.17-1.66-.6-.39-1.22-.74-1.77-1.21-1-.86-1.68-1.93-2.16-3.14-.06-.16-.12-.32-.18-.48Z"/>
  <path class="cls-1" d="M19.77,3.58s.03,0,.05,0c.53.57,1.05,1.15,1.49,1.79.6.86,1.07,1.78,1.44,2.75.36.93.59,1.9.71,2.89.1.89.1,1.8.02,2.7-.14,1.53-.56,2.97-1.23,4.34-.36.73-.79,1.41-1.29,2.06-.03.05-.08.09-.08.15-.02,0-.03,0-.05,0-.07-.03-.13-.06-.2-.09-.25-.12-.37-.35-.3-.62.16-.67.28-1.34.21-2.03-.09-.83.03-1.67-.14-2.5-.17-.89-.57-1.24-1.48-1.26-.54-.01-1.08.02-1.59-.15-.71-.24-1.23-.72-1.44-1.46-.1-.36.02-.69.18-1.01.14-.28.32-.55.48-.82.2-.34.41-.68.26-1.12-.06-.19.11-.35.23-.49.24-.3.51-.45.95-.34,1.09.27,2.21.26,3.32.21.39-.02.51-.37.61-.68.23-.68-.11-1.17-.84-1.18-.6,0-1.2.09-1.8.13-.34.02-.68.03-1.02.02-.2,0-.33-.1-.37-.31-.07-.41-.15-.8-.11-1.23.05-.61.38-1,.88-1.28.35-.19.73-.32,1.09-.48Z"/>
  <path class="cls-4" d="M22.5,19.92s.04-.04.05-.06c0,.04,0,.07-.05.06Z"/>
  <path class="cls-4" d="M22.46,19.97s.02-.05.05-.05c0,.04,0,.06-.05.05Z"/>
</svg>