<?xml version="1.0" encoding="UTF-8"?>
<svg id="Capa_1" xmlns="http://www.w3.org/2000/svg" xmlns:xlink="http://www.w3.org/1999/xlink" viewBox="0 0 128 128">
  <defs>
    <style>
      .cls-1 {
        fill: #fcee21;
      }

      .cls-2 {
        fill: url(#Degradado_sin_nombre_9);
        stroke: #211d1d;
        stroke-miterlimit: 10;
        stroke-width: 5px;
      }

      .cls-3 {
        fill: #211d1d;
      }
    </style>
    <linearGradient id="Degradado_sin_nombre_9" data-name="Degradado sin nombre 9" x1="64" y1="3.91" x2="64" y2="124.09" gradientUnits="userSpaceOnUse">
      <stop offset="0" stop-color="#fcee21"/>
      <stop offset="1" stop-color="#d9e021"/>
    </linearGradient>
  </defs>
  <ellipse class="cls-2" cx="64" cy="64" rx="60.5" ry="60.09"/>
  <g>
    <g>
      <path class="cls-3" d="M64,12.57c-28.4,0-51.43,23.03-51.43,51.43s23.03,51.43,51.43,51.43,51.43-23.03,51.43-51.43S92.4,12.57,64,12.57ZM64,79.72c-8.68,0-15.72-7.04-15.72-15.72s7.04-15.72,15.72-15.72,15.72,7.04,15.72,15.72-7.04,15.72-15.72,15.72Z"/>
      <circle class="cls-3" cx="64" cy="64" r="6.48"/>
    </g>
    <g>
      <g>
        <path class="cls-1" d="M41,51.63c1.34-1.48,3.17-1.51,3.67-.41h0c.51,1.1-.07,2.63-.99,3.67-4.45,4.91-4.45,13.33,0,18.23.92,1.04,1.5,2.57.99,3.67h0c-.5,1.1-2.33,1.07-3.67-.41-6.04-6.66-6.04-18.09,0-24.75Z"/>
        <path class="cls-1" d="M35.76,46.3c1.32-1.27,3.02-1.22,3.54-.14h0c.52,1.09-.05,2.62-1.07,3.6-7.66,7.31-7.66,21.16,0,28.46,1.02.98,1.58,2.51,1.07,3.6h0c-.51,1.09-2.21,1.13-3.54-.14-9.52-9.09-9.52-26.31,0-35.4Z"/>
        <path class="cls-1" d="M30.03,41.11c1.31-1.16,2.94-1.08,3.46,0h0c.52,1.09-.04,2.62-1.1,3.57-10.91,9.65-10.91,28.99,0,38.64,1.07.95,1.63,2.48,1.1,3.57h0c-.52,1.08-2.15,1.16-3.46,0-12.93-11.43-12.92-34.35,0-45.78Z"/>
      </g>
      <g>
        <path class="cls-1" d="M87.46,76.37c-1.34,1.48-3.17,1.51-3.67.41h0c-.51-1.1.07-2.63.99-3.67,4.45-4.91,4.45-13.33,0-18.23-.92-1.04-1.5-2.57-.99-3.67h0c.5-1.1,2.33-1.07,3.67.41,6.04,6.66,6.04,18.09,0,24.75Z"/>
        <path class="cls-1" d="M92.7,81.7c-1.32,1.27-3.02,1.22-3.54.14h0c-.52-1.09.05-2.62,1.07-3.6,7.66-7.31,7.66-21.16,0-28.46-1.02-.98-1.58-2.51-1.07-3.6h0c.51-1.09,2.21-1.13,3.54.14,9.52,9.09,9.52,26.31,0,35.4Z"/>
        <path class="cls-1" d="M98.43,86.89c-1.31,1.16-2.94,1.08-3.46,0h0c-.52-1.09.04-2.62,1.1-3.57,10.91-9.65,10.91-28.99,0-38.64-1.07-.95-1.63-2.48-1.1-3.57h0c.52-1.08,2.15-1.16,3.46,0,12.93,11.43,12.92,34.35,0,45.78Z"/>
      </g>
    </g>
  </g>
</svg>