<?xml version="1.0" encoding="UTF-8"?>
<svg id="Capa_1" xmlns="http://www.w3.org/2000/svg" viewBox="0 0 128 128">
  <defs>
    <style>
      .cls-1 {
        fill: #fff;
      }
    </style>
  </defs>
  <path class="cls-1" d="M90.97,80.48c-33.67-13-33.05-24.71-21.76-33.75,2.05-1.64,4.45-3.2,7.06-4.65s4.67-4.03,5.39-7.02c.25-1.05.36-2.15.26-3.3-.3-3.79-2.71-8.15-8.93-12.88-6.5-4.94-7.99-9.54-6.92-13.54-.5-.01-1-.04-1.51-.04-3.01,0-5.97.24-8.85.7-1.14,3.82-.19,8.17,4.56,12.88,6.4,6.34,5.19,11.87,1.21,16.29-2.05,2.27-4.64,3.98-7.49,5.08-5.07,1.96-9.85,4.13-13.94,6.49-15.58,8.97-21.19,20.62,4.91,33.75,27.32,13.75,13.38,25.41-10.5,34.12,8.77,5.55,19.08,8.76,30.12,8.76,21.67,0,40.57-12.37,50.38-30.58-5.14-3.91-12.88-8.02-23.97-12.31Z"/>
  <path class="cls-1" d="M75.98,126.83C31.45,134.92-6.92,96.55,1.18,52.02,5.47,28.42,28.51,5.38,52.11,1.09c44.53-8.1,82.91,30.28,74.8,74.82-4.29,23.59-27.34,46.63-50.93,50.92ZM74.57,8.53C35.31,1.39,1.48,35.22,8.62,74.48c4.15,22.81,22.09,40.75,44.9,44.9,39.26,7.15,73.1-26.69,65.96-65.95-4.15-22.81-22.09-40.75-44.9-44.9Z"/>
</svg>